HIERARCHY
ROOT Hips
{
	OFFSET 0.000000 0.000000 0.053700
	CHANNELS 6 Xposition Yposition Zposition Xrotation Yrotation Zrotation
	JOINT Spine
	{
		OFFSET 0.000000 -0.000000 0.071600
		CHANNELS 6 Xposition Yposition Zposition Xrotation Yrotation Zrotation
		JOINT Spine1
		{
			OFFSET 0.000000 -0.000000 0.081800
			CHANNELS 3 Xrotation Yrotation Zrotation
			JOINT Spine2
			{
				OFFSET 0.000000 -0.000000 0.081800
				CHANNELS 3 Xrotation Yrotation Zrotation
				JOINT Neck
				{
					OFFSET 0.000000 -0.000000 0.071600
					CHANNELS 6 Xposition Yposition Zposition Xrotation Yrotation Zrotation
					JOINT Head
					{
						OFFSET 0.000000 -0.000000 0.051100
						CHANNELS 3 Xrotation Yrotation Zrotation
						End Site
						{
							OFFSET 0.000000 -0.000000 0.051100
						}
					}
				}
				JOINT LeftShoulder
				{
					OFFSET 0.024900 -0.000000 0.061300
					CHANNELS 6 Xposition Yposition Zposition Xrotation Yrotation Zrotation
					JOINT LeftArm
					{
						OFFSET 0.049900 -0.000000 0.000000
						CHANNELS 3 Xrotation Yrotation Zrotation
						JOINT LeftForeArm
						{
							OFFSET 0.099700 -0.000000 0.000000
							CHANNELS 3 Xrotation Yrotation Zrotation
							JOINT LeftHand
							{
								OFFSET 0.099700 -0.000000 0.000000
								CHANNELS 3 Xrotation Yrotation Zrotation
								End Site
								{
									OFFSET 0.099700 -0.000000 0.000000
								}
							}
						}
					}
				}
				JOINT RightShoulder
				{
					OFFSET -0.024900 -0.000000 0.061300
					CHANNELS 6 Xposition Yposition Zposition Xrotation Yrotation Zrotation
					JOINT RightArm
					{
						OFFSET -0.049900 -0.000000 0.000000
						CHANNELS 3 Xrotation Yrotation Zrotation
						JOINT RightForeArm
						{
							OFFSET -0.099700 -0.000000 0.000000
							CHANNELS 3 Xrotation Yrotation Zrotation
							JOINT RightHand
							{
								OFFSET -0.099700 -0.000000 0.000000
								CHANNELS 3 Xrotation Yrotation Zrotation
								End Site
								{
									OFFSET -0.099700 -0.000000 0.000000
								}
							}
						}
					}
				}
			}
		}
	}
	JOINT LeftUpLeg
	{
		OFFSET 0.049900 0.000000 0.000000
		CHANNELS 6 Xposition Yposition Zposition Xrotation Yrotation Zrotation
		JOINT LeftLeg
		{
			OFFSET 0.000000 0.000000 -0.255600
			CHANNELS 3 Xrotation Yrotation Zrotation
			JOINT LeftFoot
			{
				OFFSET 0.000000 0.000000 -0.255600
				CHANNELS 3 Xrotation Yrotation Zrotation
				JOINT LeftToeBase
				{
					OFFSET 0.000000 0.019731 -0.051125
					CHANNELS 3 Xrotation Yrotation Zrotation
					End Site
					{
						OFFSET 0.000000 0.054800 0.000000
					}
				}
			}
		}
	}
	JOINT RightUpLeg
	{
		OFFSET -0.049900 0.000000 0.000000
		CHANNELS 6 Xposition Yposition Zposition Xrotation Yrotation Zrotation
		JOINT RightLeg
		{
			OFFSET 0.000000 0.000000 -0.255600
			CHANNELS 3 Xrotation Yrotation Zrotation
			JOINT RightFoot
			{
				OFFSET 0.000000 0.000000 -0.255600
				CHANNELS 3 Xrotation Yrotation Zrotation
				JOINT RightToeBase
				{
					OFFSET 0.000000 0.019731 -0.051125
					CHANNELS 3 Xrotation Yrotation Zrotation
					End Site
					{
						OFFSET 0.000000 0.054800 0.000000
					}
				}
			}
		}
	}
}
MOTION
Frames: 5
Frame Time: 0.033333
-0.029614 0.105175 0.447145 -2.232446 3.461369 -18.511730 0.000000 -0.000000 0.071600 5.117112 -0.136024 -0.598666 10.257386 -1.053274 -0.694209 10.262064 -0.914508 -0.751196 0.000000 0.000000 0.071600 6.343895 -0.396306 -1.872982 -0.000001 0.000001 0.000001 0.024900 0.000000 0.061300 0.382813 3.381688 0.905253 1.757203 39.188880 6.671140 0.000022 0.000005 -114.811600 0.000000 0.000002 -0.000002 -0.024900 0.000000 0.061300 -0.953808 -8.731580 -7.390193 -2.470691 -31.239810 7.135308 0.000012 -0.000036 92.822387 0.000001 0.000000 0.000001 0.049900 -0.000000 0.000000 -22.674669 -22.283779 3.745067 69.075486 -6.605324 0.596496 -42.153346 21.016694 10.610724 0.000002 -0.000000 0.000000 -0.049900 -0.000000 0.000000 -36.274663 6.013486 2.527903 73.188523 8.458083 6.970346 -32.055546 -10.891475 13.087664 -0.000003 -0.000000 -0.000000 
-0.034730 0.106132 0.450717 -0.797039 4.553067 -15.081384 0.000000 -0.000000 0.071600 4.870525 -1.736028 -1.520897 9.767168 -2.606660 -2.631330 9.780660 -2.500468 -2.645810 -0.000000 0.000000 0.071600 6.338156 -0.475859 -1.409057 -0.000001 -0.000001 -0.000002 0.024900 0.000000 0.061300 0.509488 2.480282 0.035672 -5.202374 34.387246 6.541349 0.000012 0.000019 -111.380544 0.000000 0.000004 -0.000004 -0.024900 0.000000 0.061300 -1.219235 -9.119687 -8.275484 5.611619 -34.295124 7.812758 0.000003 -0.000016 97.725295 -0.000003 0.000001 0.000000 0.049900 0.000000 0.000000 -25.363914 -23.416501 1.378792 67.497855 -7.845768 -0.972412 -40.624527 21.333626 9.471879 0.000000 -0.000000 0.000000 -0.049900 0.000000 0.000000 -35.622872 5.204252 0.656146 72.070660 7.471383 7.347304 -31.057840 -9.672032 9.908047 0.000001 -0.000000 0.000000 
-0.041572 0.107576 0.453371 0.657404 5.868793 -11.843978 0.000000 -0.000000 0.071600 4.567331 -3.421716 -2.419090 9.128621 -4.232130 -4.562049 9.157405 -4.159408 -4.535092 -0.000000 0.000000 0.071600 6.331842 -0.415233 -0.893877 -0.000002 0.000000 -0.000001 0.024900 0.000000 0.061300 0.597969 1.578420 -0.686469 -11.479144 29.024824 6.022056 0.000001 0.000007 -107.047390 -0.000002 0.000000 -0.000003 -0.024900 -0.000000 0.061300 -1.535064 -9.537182 -9.269730 14.723554 -37.323507 9.014736 -0.000004 -0.000016 102.054351 -0.000001 -0.000001 -0.000001 0.049900 -0.000000 0.000000 -28.488048 -24.869521 -1.192882 66.100809 -8.776576 -2.698018 -38.944789 20.961485 8.263966 0.000002 -0.000000 0.000000 -0.049900 -0.000000 0.000000 -35.297513 4.321813 -1.342942 71.188179 5.984152 7.787613 -31.929823 -8.392317 6.211525 0.000000 0.000000 0.000000 
-0.052080 0.109494 0.453600 2.342673 7.437396 -9.173009 0.000000 0.000000 0.071600 4.199163 -5.244452 -3.249789 8.293803 -5.968119 -6.442067 8.353919 -5.930196 -6.377903 -0.000000 0.000000 0.071600 6.277269 -0.098775 -0.269770 -0.000002 0.000000 0.000001 0.024900 -0.000000 0.061300 0.598492 0.699121 -1.061417 -17.402127 22.777803 6.128617 0.000001 0.000007 -100.638726 -0.000001 0.000000 -0.000003 -0.024900 0.000000 0.061300 -1.971629 -10.033667 -10.537571 25.641584 -40.619569 10.694347 0.000005 -0.000006 105.159833 0.000001 -0.000000 -0.000002 0.049900 0.000000 -0.000000 -32.898839 -26.621463 -4.276723 65.906182 -9.139459 -3.664128 -36.945446 17.223755 6.331789 -0.000002 0.000000 0.000000 -0.049900 -0.000000 -0.000000 -35.510936 3.003491 -3.533275 71.029972 3.613343 8.394035 -37.299820 -6.053373 1.547542 0.000002 0.000000 0.000000 
-0.065192 0.111738 0.451562 4.123326 8.953680 -7.391553 -0.000000 -0.000000 0.071600 3.839764 -6.940838 -3.933405 7.478459 -7.570349 -8.085888 7.579770 -7.558094 -7.990590 0.000000 -0.000000 0.071600 5.958734 0.139435 0.418688 0.000000 -0.000000 0.000001 0.024900 -0.000000 0.061300 0.561018 -0.143095 -1.202032 -23.441452 15.613604 4.346758 -0.000007 0.000012 -93.019602 -0.000001 0.000000 -0.000004 -0.024900 -0.000000 0.061300 -2.481799 -10.559143 -11.975603 37.004090 -42.875495 13.659232 0.000008 -0.000015 107.028641 -0.000001 -0.000000 -0.000000 0.049900 -0.000000 -0.000000 -38.118599 -28.518842 -7.959664 66.021947 -9.452898 -5.520297 -32.810593 15.706280 5.010534 0.000003 -0.000001 -0.000000 -0.049900 0.000000 0.000000 -37.486107 0.853073 -5.248407 72.297764 1.659479 6.014788 -37.748123 -4.751427 -0.490362 -0.000002 0.000000 -0.000000 
